<svg xmlns="http://www.w3.org/2000/svg" width="509" height="516.863" viewBox="0 0 509 516.863"><g><g fill="none" stroke="#fff" stroke-width="3" opacity=".27"><g transform="translate(320)"><circle cx="94.5" cy="94.5" r="94.5" stroke="none"/><circle cx="94.5" cy="94.5" r="93"/></g><g transform="translate(334 14)"><circle cx="80.5" cy="80.5" r="80.5" stroke="none"/><circle cx="80.5" cy="80.5" r="79"/></g><g transform="translate(346 26)"><circle cx="69" cy="69" r="69" stroke="none"/><circle cx="69" cy="69" r="67.5"/></g></g><ellipse cx="215.132" cy="12.56" fill="#f5f5f5" rx="215.132" ry="12.56" transform="translate(0 491.743)"/><g><g data-name="Mobile login-pana"><path fill="#e0e0e0" d="M363.112 391.964H243.584v-69.169h119.528Zm-118.8-.729h118.072v-67.71H244.313Z"/><path fill="#f0f0f0" d="M259.592 359.677h78.861v2.312h-78.861z"/><path fill="#f0f0f0" d="M259.592 368.297h84.295v2.523h-84.295z"/><path fill="#f0f0f0" d="M259.592 377.02h84.295v2.523h-84.295z"/><path fill="#f0f0f0" d="M259.592 347.154h27.561v6.002h-27.561z"/><path fill="#e0e0e0" d="M243.97 323.16h118.777v11.013H243.97z"/><path fill="#fff" d="M353.609 332.524c-.153-.146 1.378-1.991 3.413-4.121s3.822-3.741 3.967-3.6-1.378 1.991-3.413 4.128-3.823 3.739-3.967 3.593Z"/><path fill="#fff" d="M361.005 332.524c-.146.146-1.925-1.459-3.968-3.6s-3.566-3.982-3.413-4.128 1.925 1.459 3.967 3.6 3.557 3.982 3.414 4.128Z"/><path fill="#d1deff" d="M97.253 186.186H216.03v68.447H97.253z"/><path fill="#f0f0f0" d="M112.882 222.71h78.861v2.312h-78.861z"/><path fill="#f0f0f0" d="M112.882 231.331h84.295v2.523h-84.295z"/><path fill="#f0f0f0" d="M112.882 240.054h84.295v2.523h-84.295z"/><path fill="#f0f0f0" d="M112.882 210.188h27.561v6.002h-27.561z"/><path fill="#a2beff" d="M97.253 186.186H216.03v11.013H97.253z"/><path fill="#fff" d="M206.49 195.5c-.153-.139 1.378-1.991 3.413-4.121s3.822-3.741 3.968-3.6-1.378 1.991-3.413 4.121-3.822 3.731-3.968 3.6Z"/><path fill="#fff" d="M213.871 195.5c-.146.146-1.925-1.459-3.967-3.6s-3.566-3.975-3.413-4.121 1.925 1.459 3.967 3.6 3.566 3.982 3.413 4.121Z"/><path fill="#e0e0e0" d="M171.046 313.336H51.539V244.16h119.507Zm-118.777-.729h118.047v-67.718H52.268Z"/><path fill="#f0f0f0" d="M67.533 281.049h78.861v2.312H67.533z"/><path fill="#f0f0f0" d="M67.533 289.669h84.295v2.523H67.533z"/><path fill="#f0f0f0" d="M67.533 298.392h84.295v2.523H67.533z"/><path fill="#f0f0f0" d="M67.533 268.526h27.561v6.002H67.533z"/><path fill="#d1deff" d="M51.904 244.524h118.777v11.013H51.904z"/><path fill="#d1deff" d="M168.719 329.184h140.248v125.56H168.719Z"/><path fill="#d1deff" d="M65.907 289.633h109.865v114.146H65.907Z"/><path fill="#a2beff" d="M65.907 289.633h109.865v12.435H65.907z"/><path fill="#fff" d="M74.979 295.723a2.3 2.3 0 1 1-2.3-2.407 2.363 2.363 0 0 1 2.3 2.407Z"/><path fill="#fff" d="M84.337 295.723a2.312 2.312 0 1 1-2.3-2.407 2.363 2.363 0 0 1 2.3 2.407Z"/><path fill="#fff" d="M93.694 295.723a2.312 2.312 0 1 1-2.3-2.407 2.363 2.363 0 0 1 2.3 2.407Z"/><path fill="#d1deff" d="M207.176 211.151h140.248v139.782H207.176z"/><path fill="#a2beff" d="M207.176 211.151h140.248v16.373H207.176z"/><path fill="#fff" d="M219.119 219.171a3.041 3.041 0 1 1-3.041-3.173 3.114 3.114 0 0 1 3.041 3.173Z"/><path fill="#fff" d="M230.551 217.029a3.041 3.041 0 1 1-4.376-.1 3.1 3.1 0 0 1 4.376.1Z"/><path fill="#fff" d="M243.759 219.171a3.041 3.041 0 1 1-3.041-3.173 3.114 3.114 0 0 1 3.041 3.173Z"/><path fill="#175cff" d="M267.785 402.546c-11.27-7.873-13.822-22.473-13.378-35.613.073-2.188-.168-4.507.875-6.425s3.479-3.238 5.441-2.319c1.626.766 2.334 2.662 3.245 4.23a12.808 12.808 0 0 0 5.142 4.908c1.393.729 3.122 1.167 4.5.408 1.9-1.043 2.115-3.647 2.1-5.835q0-6.1-.073-12.194a20.3 20.3 0 0 1 .656-6.476 6.787 6.787 0 0 1 4.252-4.573c2.064-.583 4.638.62 5.105 2.75a20.992 20.992 0 0 1 .066 2.713 2.356 2.356 0 0 0 1.335 2.188c.853.277 1.743-.357 2.4-1a28.816 28.816 0 0 0 5.2-7.855 40.1 40.1 0 0 1 4.857-8.11 11.82 11.82 0 0 1 8.023-4.485c3.158-.182 6.447 1.758 7.235 4.821s-1 6.192-2.917 8.679a48.77 48.77 0 0 1-10.13 9.664 3.967 3.967 0 0 0-1.7 1.816c-.474 1.459.9 2.917 2.341 3.377 1.626.54 3.391.372 5.105.576s3.537.948 4.186 2.553c.89 2.232-.977 4.566-2.808 6.1a41.849 41.849 0 0 1-12.34 7.126 14.106 14.106 0 0 0-4.587 2.224c-1.3 1.123-2.071 3.085-1.291 4.624s2.786 2.027 4.471 1.714a29.076 29.076 0 0 0 4.784-1.823c3-1.13 6.863-.926 8.752 1.663a6.9 6.9 0 0 1 .729 6.1 15.923 15.923 0 0 1-3.3 5.39 42.03 42.03 0 0 1-17.985 12.566c-6.95 2.407-13.39 3.063-20.3.532"/><path fill="#263238" d="M311.557 326.66s-.066.073-.212.2l-.649.576c-.569.511-1.408 1.254-2.465 2.239a81.4 81.4 0 0 0-8.329 8.993c-1.626 2.02-3.311 4.31-5.105 6.8s-3.647 5.171-5.485 8.023a98.917 98.917 0 0 0-5.375 9.321c-.846 1.67-1.59 3.413-2.356 5.193l-2.261 5.433a200.457 200.457 0 0 0-7.775 20.983 97.731 97.731 0 0 0-3.647 17.89 71.149 71.149 0 0 0-.2 12.318c.117 1.459.226 2.574.328 3.333.044.365.073.656.1.868v.3a1.525 1.525 0 0 1-.066-.292c-.036-.212-.08-.5-.139-.861-.131-.729-.27-1.882-.4-3.34a67.781 67.781 0 0 1 .073-12.355 96.143 96.143 0 0 1 3.566-17.97 195.768 195.768 0 0 1 7.753-21.034l2.319-5.412c.766-1.772 1.517-3.53 2.37-5.207a97.691 97.691 0 0 1 5.419-9.343c1.867-2.917 3.749-5.557 5.521-8.023s3.486-4.77 5.105-6.783a77.527 77.527 0 0 1 8.438-8.927c1.079-.97 1.94-1.7 2.523-2.188l.678-.547a1.591 1.591 0 0 1 .271-.188Z"/><path fill="#263238" d="M283.697 362.648a4.51 4.51 0 0 1-.211-.926 51.394 51.394 0 0 1-.4-2.567c-.314-2.188-.635-5.185-.977-8.5s-.729-6.323-1.05-8.489a200.16 200.16 0 0 0-.416-2.553 3.936 3.936 0 0 1-.124-.948 4.031 4.031 0 0 1 .27.912c.16.6.343 1.459.547 2.545.416 2.188.824 5.164 1.167 8.489s.635 6.243.861 8.511c.109 1.021.2 1.889.277 2.582a4.046 4.046 0 0 1 .056.944Z"/><path fill="#263238" d="M311.759 357.407a5.837 5.837 0 0 1-1.079.131c-.729.066-1.765.153-3.049.3-2.567.277-6.1.788-9.97 1.517s-7.352 1.553-9.853 2.188a81.27 81.27 0 0 0-2.917.81 5.32 5.32 0 0 1-1.094.263 6.357 6.357 0 0 1 1.05-.416 52.63 52.63 0 0 1 2.917-.933c2.487-.729 5.966-1.6 9.853-2.341a99.3 99.3 0 0 1 9.955-1.386 48.785 48.785 0 0 1 3.063-.168 5.6 5.6 0 0 1 1.124.035Z"/><path fill="#263238" d="M271.517 393.802a1.51 1.51 0 0 1-.19-.343l-.481-1.014c-.416-.883-.977-2.188-1.648-3.785-1.357-3.209-3.085-7.7-4.923-12.69s-3.53-9.481-4.814-12.727c-.627-1.575-1.145-2.866-1.532-3.829l-.407-1.042a1.41 1.41 0 0 1-.117-.379 1.516 1.516 0 0 1 .19.343l.481 1.014c.408.882.977 2.188 1.648 3.785 1.357 3.209 3.085 7.7 4.923 12.69s3.53 9.481 4.813 12.727c.627 1.575 1.145 2.866 1.524 3.829.168.416.306.729.416 1.043a1.411 1.411 0 0 1 .117.378Z"/><path fill="#263238" d="M308.771 381.79a1.546 1.546 0 0 1-.372.153l-1.079.365-3.989 1.291c-3.369 1.094-8.023 2.655-13.128 4.376s-9.78 3.253-13.172 4.274c-1.692.518-3.071.912-4.026 1.174l-1.1.284a1.887 1.887 0 0 1-.394.08 1.548 1.548 0 0 1 .372-.153l1.079-.365 3.989-1.291c3.369-1.094 8.023-2.655 13.128-4.376s9.773-3.253 13.164-4.274c1.7-.518 3.07-.912 4.033-1.174l1.1-.284a1.892 1.892 0 0 1 .395-.08Z"/><path fill="#175cff" d="m293.571 204.879-3.756 1.342-1.612-4.908a16.475 16.475 0 0 0-21.07-10.8c-8.672 3.056-13.288 12.982-10.327 22.033l1.612 4.908-3.771 1.349a6 6 0 0 0-3.515 7.5l10.451 31.937a5.638 5.638 0 0 0 7.191 3.727l38.924-13.926a6.024 6.024 0 0 0 3.552-7.57l-10.459-31.938a5.623 5.623 0 0 0-7.22-3.654Zm-29.673 5.106a9.62 9.62 0 0 1 5.66-12.07 9.014 9.014 0 0 1 11.545 5.915l1.6 4.908-17.2 6.155Zm21.88 28.341 2.669 8.154a.664.664 0 0 1-.416.817l-3.733 1.334a.6.6 0 0 1-.729-.394l-2.691-8.117a7.293 7.293 0 0 1-6.564-5.105 7.665 7.665 0 0 1 4.514-9.612 7.184 7.184 0 0 1 9.2 4.711 7.789 7.789 0 0 1-2.232 8.234Z"/><path fill="#263238" d="M289.647 206.134c0 .1-6.965 2.72-15.629 5.835s-15.731 5.616-15.768 5.543 6.965-2.713 15.637-5.835 15.724-5.643 15.76-5.543Z"/><path fill="#263238" d="M297.918 207.475a1.276 1.276 0 0 1 .08.2c.058.146.124.335.211.569l.78 2.188 2.8 8.154c1.167 3.457 2.56 7.556 4.106 12.107.729 2.283 1.59 4.66 2.392 7.162a10.938 10.938 0 0 1 .547 4 5.376 5.376 0 0 1-.591 2.02 5.574 5.574 0 0 1-1.378 1.626 13.128 13.128 0 0 1-3.7 1.889l-3.756 1.349-7.115 2.546-12.041 4.288-8.132 2.859-2.188.729-.583.19a.621.621 0 0 1-.2.051.383.383 0 0 0 .182-.088l.569-.226 2.193-.823 8.088-2.976 12.019-4.376 7.1-2.567 3.756-1.357a12.493 12.493 0 0 0 3.6-1.831 5.186 5.186 0 0 0 1.284-1.51 4.8 4.8 0 0 0 .547-1.874 10.494 10.494 0 0 0-.525-3.858c-.788-2.48-1.619-4.879-2.37-7.162-1.517-4.558-2.917-8.672-4.026-12.129s-2.042-6.236-2.684-8.19c-.306-.955-.54-1.7-.729-2.239l-.175-.583a.677.677 0 0 1-.061-.138Z"/><path fill="#263238" d="M277.38 197.418s-.387-.19-1.1-.481a9.714 9.714 0 0 0-3.187-.642 10.94 10.94 0 0 0-4.711.89 10.5 10.5 0 0 0-4.456 3.727 9.86 9.86 0 0 0-1.714 5.536 17.056 17.056 0 0 0 .729 4.777c.379 1.327.773 2.385 1.036 3.121a8.146 8.146 0 0 1 .379 1.152 6.4 6.4 0 0 1-.518-1.1c-.3-.729-.729-1.765-1.152-3.1a16.584 16.584 0 0 1-.839-4.85 10 10 0 0 1 1.75-5.747 10.67 10.67 0 0 1 4.631-3.836 10.852 10.852 0 0 1 4.85-.831 9.183 9.183 0 0 1 3.231.766 6.024 6.024 0 0 1 .788.438 1.087 1.087 0 0 1 .283.18Z"/><path fill="#263238" d="M277.716 225.956a2.51 2.51 0 0 1 .365-.182 7.236 7.236 0 0 1 1.13-.4 8.087 8.087 0 0 1 1.889-.321 6.4 6.4 0 0 1 2.56.387 7.9 7.9 0 0 1 4.427 5.105 7.352 7.352 0 0 1 0 4.186 9.481 9.481 0 0 1-2.348 3.931l.044-.2c.97 2.662 2.028 5.55 3.121 8.562l.066.182-.182.066-1.67.554-3.647 1.218-.182.058-.058-.182c-1-3.019-2.093-5.835-2.917-8.6l.16.124a7.293 7.293 0 0 1-3.909-1.539 8.825 8.825 0 0 1-2.443-2.917 6.667 6.667 0 0 1-.773-3.282 7.921 7.921 0 0 1 3.056-6.024 4.638 4.638 0 0 1 1.262-.729 14.076 14.076 0 0 0-1.2.795 7.753 7.753 0 0 0-2.254 3.2 6.9 6.9 0 0 0 .226 5.886 8.562 8.562 0 0 0 2.385 2.8 6.943 6.943 0 0 0 3.727 1.459h.124l.036.109c.8 2.713 1.9 5.55 2.917 8.584l-.241-.117 3.647-1.218 1.663-.562-.117.248c-1.087-3.012-2.137-5.907-3.1-8.57v-.109l.088-.088a9.291 9.291 0 0 0 2.3-3.771 7.052 7.052 0 0 0 0-4 7.711 7.711 0 0 0-4.215-4.967 6.265 6.265 0 0 0-2.472-.416 8.357 8.357 0 0 0-1.867.255c-1.076.273-1.591.521-1.598.485Z"/><path fill="#a2beff" d="m255.173 436.54-72.852-.335a15.877 15.877 0 0 1-15.79-15.943l.773-182.629a15.863 15.863 0 0 1 15.943-15.8l72.845.335a15.877 15.877 0 0 1 15.8 15.936l-.773 182.622a15.877 15.877 0 0 1-15.946 15.814Z"/><path fill="#fff" d="M255.981 228.45h-14.12a3.508 3.508 0 0 0-3.442 3.574v2.56a3.5 3.5 0 0 1-3.442 3.566l-27.525-.124a3.515 3.515 0 0 1-3.421-3.6v-2.56a3.515 3.515 0 0 0-3.413-3.6h-4.967l-12.36-.064a11.115 11.115 0 0 0-11.18 11.005l-.73 178.261a11.108 11.108 0 0 0 11.057 11.159l72.7.336a11.115 11.115 0 0 0 11.166-11.064l.727-178.257a11.122 11.122 0 0 0-11.05-11.192Z"/><path fill="#175cff" d="m246.202 405.179-54.057-.233c-.562 0-1.014-.613-1.006-1.357l.058-14.142c0-.729.459-1.356 1.021-1.356l54.057.248a1.225 1.225 0 0 1 1.007 1.364l-.051 14.127c-.001.751-.468 1.356-1.029 1.349Z"/><text fill="#e8e8e3" font-family="Montserrat-Regular, Montserrat" font-size="2" transform="translate(206.819 394.511)"><tspan x="0" y="0">SING UP</tspan></text><path fill="#175cff" d="m184.169 280.767 18.758.085-.016 3.442-18.758-.085z"/><path d="m184.169 280.767 18.758.085-.016 3.442-18.758-.085z" opacity=".1"/><path fill="#e0e0e0" d="M257.915 301.988a1.677 1.677 0 0 0 .43-.1 1.152 1.152 0 0 0 .729-.985v-9.685a1.415 1.415 0 0 0-.2-.955 1.094 1.094 0 0 0-.868-.445h-11.677l-61-.226a.97.97 0 0 0-.8.4 1.393 1.393 0 0 0-.19.955v8.752a5.755 5.755 0 0 0 0 1.021.985.985 0 0 0 .569.656 1.137 1.137 0 0 0 .452.08h3.712l16.2.088 27.422.168 18.488.146 5.025.058h-23.52l-27.422-.087-16.2-.066h-3.712a1.459 1.459 0 0 1-.6-.1 1.371 1.371 0 0 1-.788-.912 2.062 2.062 0 0 1-.044-.583v-9.292a4.078 4.078 0 0 1 0-.583 1.24 1.24 0 0 1 .241-.591 1.342 1.342 0 0 1 1.109-.562l61 .335 10.539.073h1.138a1.247 1.247 0 0 1 1.021.532 1.554 1.554 0 0 1 .233 1.072v4.66c0 2.188-.051 3.865-.066 5.032a1.182 1.182 0 0 1-.766 1.014.875.875 0 0 1-.455.13Z"/><path fill="#175cff" d="M189.804 293.25h34.307v3.216h-34.307z"/><path fill="#fff" d="M189.804 293.25h34.307v3.216h-34.307z" opacity=".2"/><path fill="#175cff" d="m184.041 312.171 18.758.085-.016 3.442-18.758-.085z"/><path d="m184.041 312.171 18.758.085-.016 3.442-18.758-.085z" opacity=".1"/><path fill="#e0e0e0" d="M257.441 333.392a3.764 3.764 0 0 0 .438-.08 1.5 1.5 0 0 0 .919-.831 2.043 2.043 0 0 0 .131-.926v-8.7a1.568 1.568 0 0 0-.212-.963 1.415 1.415 0 0 0-.795-.62 4.471 4.471 0 0 0-1.1-.058h-10.496l-60.789-.226a1.349 1.349 0 0 0-1.335 1.174v8.752a4.185 4.185 0 0 0 .044 1.021 1.386 1.386 0 0 0 .532.729 1.517 1.517 0 0 0 .9.233h3.121l16.14.08 27.328.168 18.423.146 5.01.058h-23.428l-27.342-.029-16.138-.059h-3.173a1.831 1.831 0 0 1-1.116-.3 1.751 1.751 0 0 1-.686-.955 4.593 4.593 0 0 1-.058-1.123v-8.751a1.728 1.728 0 0 1 1.714-1.51l60.789.335 10.495.08a4.516 4.516 0 0 1 1.167.08 1.612 1.612 0 0 1 .9.729 1.757 1.757 0 0 1 .233 1.065v8.737a2.035 2.035 0 0 1-.153.955 1.546 1.546 0 0 1-.985.831 1.368 1.368 0 0 1-.478-.042Z"/><path fill="#175cff" d="m183.9 344.938 18.758.085-.016 3.442-18.758-.085z"/><path d="m183.9 344.938 18.758.085-.016 3.442-18.758-.085z" opacity=".1"/><path fill="#e0e0e0" d="M257.295 366.146a3.49 3.49 0 0 0 .438-.08 1.5 1.5 0 0 0 .919-.824 2.056 2.056 0 0 0 .131-.926v-8.708a1.568 1.568 0 0 0-.211-.963 1.459 1.459 0 0 0-.795-.613 4.458 4.458 0 0 0-1.1-.066H246.18l-60.789-.226a1.349 1.349 0 0 0-1.335 1.174v8.752a4.129 4.129 0 0 0 .044 1.014 1.335 1.335 0 0 0 .532.729 1.459 1.459 0 0 0 .9.233h3.173l16.14.087 27.328.168 18.423.146 5.01.058h-23.428l-27.328-.08-16.14-.066h-3.173a1.787 1.787 0 0 1-1.116-.3 1.75 1.75 0 0 1-.686-.955 4.593 4.593 0 0 1-.058-1.123v-8.788a1.721 1.721 0 0 1 1.707-1.51l60.789.336 10.495.08a4.516 4.516 0 0 1 1.167.08 1.612 1.612 0 0 1 .9.729 1.758 1.758 0 0 1 .233 1.065v8.737a2 2 0 0 1-.153.955 1.546 1.546 0 0 1-.985.831 1.153 1.153 0 0 1-.535.054Z"/><path fill="#175cff" d="m189.071 325.409 34.307.156-.015 3.216-34.307-.156z"/><path fill="#fff" d="m189.071 325.409 34.307.156-.015 3.216-34.307-.156z" opacity=".2"/><path fill="#175cff" d="M192.178 360.195a1.5 1.5 0 1 1-1.459-1.612 1.546 1.546 0 0 1 1.459 1.612Z"/><path fill="#175cff" d="M196.82 360.217a1.5 1.5 0 1 1-.718-1.388 1.5 1.5 0 0 1 .718 1.388Z"/><path fill="#175cff" d="M201.473 360.237a1.5 1.5 0 1 1-1.459-1.612 1.553 1.553 0 0 1 1.459 1.612Z"/><path fill="#175cff" d="M206.118 360.261a1.5 1.5 0 1 1-1.459-1.612 1.553 1.553 0 0 1 1.459 1.612Z"/><path fill="#175cff" d="M210.764 360.275a1.5 1.5 0 1 1-1.459-1.6 1.553 1.553 0 0 1 1.459 1.6Z"/><path fill="#175cff" d="M215.417 360.297a1.5 1.5 0 1 1-1.5-1.6 1.554 1.554 0 0 1 1.5 1.6Z"/><path fill="#175cff" d="M220.063 360.319a1.5 1.5 0 1 1-.718-1.388 1.5 1.5 0 0 1 .718 1.388Z"/><path fill="#175cff" d="M224.709 360.341a1.5 1.5 0 1 1-1.5-1.6 1.554 1.554 0 0 1 1.5 1.6Z"/><path fill="#175cff" d="M229.355 360.362a1.5 1.5 0 1 1-1.459-1.6 1.554 1.554 0 0 1 1.459 1.6Z"/><g fill="#fff" opacity=".2"><path d="M192.177 360.195a1.5 1.5 0 1 1-1.459-1.612 1.546 1.546 0 0 1 1.459 1.612Z"/><path d="M196.819 360.217a1.5 1.5 0 1 1-.718-1.388 1.5 1.5 0 0 1 .718 1.388Z"/><path d="M201.472 360.236a1.5 1.5 0 1 1-1.459-1.612 1.553 1.553 0 0 1 1.459 1.612Z"/><path d="M206.118 360.26a1.5 1.5 0 1 1-1.459-1.612 1.553 1.553 0 0 1 1.459 1.612Z"/><path d="M210.764 360.274a1.5 1.5 0 1 1-1.459-1.6 1.553 1.553 0 0 1 1.459 1.6Z"/><path d="M215.417 360.297a1.5 1.5 0 1 1-1.5-1.6 1.554 1.554 0 0 1 1.5 1.6Z"/><path d="M220.063 360.319a1.5 1.5 0 1 1-.718-1.388 1.5 1.5 0 0 1 .718 1.388Z"/><path d="M224.709 360.341a1.5 1.5 0 1 1-1.5-1.6 1.554 1.554 0 0 1 1.5 1.6Z"/><path d="M229.354 360.362a1.5 1.5 0 1 1-1.459-1.6 1.554 1.554 0 0 1 1.459 1.6Z"/></g><path fill="#175cff" d="M222.755 255.076a2.823 2.823 0 0 0 1.685-2.618 2.655 2.655 0 1 0-5.3 0 2.83 2.83 0 0 0 1.692 2.647c-4.084.613-3.9 5.047-3.9 5.047l9.656.044s.222-4.513-3.833-5.12Z"/><path d="M222.755 255.076a2.823 2.823 0 0 0 1.685-2.618 2.655 2.655 0 1 0-5.3 0 2.83 2.83 0 0 0 1.692 2.647c-4.084.613-3.9 5.047-3.9 5.047l9.656.044s.222-4.513-3.833-5.12Z" opacity=".1"/><path fill="#175cff" d="m204.029 262.902 34.417.156-.019 4.113-34.417-.156z"/><path fill="#fff" d="m204.029 262.902 34.417.156-.019 4.113-34.417-.156z" opacity=".2"/><g fill="#175cff"><path d="M111.92 284.374h-.343l-.992.073a11.253 11.253 0 0 0-1.6.211 9.865 9.865 0 0 0-1.014.2l-1.13.314a18.574 18.574 0 0 0-5.375 2.662 18.918 18.918 0 0 0-5.295 5.893 19.751 19.751 0 0 0-1.852 4.237 20.379 20.379 0 0 0-.81 4.945 20.044 20.044 0 0 0 .044 2.64 10.767 10.767 0 0 0 .182 1.342 8.622 8.622 0 0 0 .255 1.349 19.247 19.247 0 0 0 10.94 13.368 17.329 17.329 0 0 0 6.265 1.408 16.913 16.913 0 0 0 6.564-.941l.642-.241h.088l.073.044 9.2 4.668-.27.233c-.985-3.049-1.933-6-2.852-8.839v-.109l.08-.08a19.692 19.692 0 0 0 4.828-8.023 20.2 20.2 0 0 0 .729-8.548 19.969 19.969 0 0 0-2.414-7.249 19.689 19.689 0 0 0-4.157-5.105 20.31 20.31 0 0 0-4.514-2.874 19.647 19.647 0 0 0-3.822-1.2l-1.459-.241-1.058-.08-.642-.044h-.219a.991.991 0 0 1 .219 0h.649l1.058.044 1.459.211a19.329 19.329 0 0 1 3.873 1.16 20.269 20.269 0 0 1 4.595 2.866 19.741 19.741 0 0 1 4.245 5.105 20.02 20.02 0 0 1 2.487 7.344 20.422 20.422 0 0 1-.678 8.693 19.954 19.954 0 0 1-4.9 8.19l.044-.19c.919 2.837 1.874 5.791 2.866 8.832l.139.445-.416-.212-9.2-4.66h.16l-.656.241a17.4 17.4 0 0 1-6.688.963 17.722 17.722 0 0 1-6.4-1.459 19.189 19.189 0 0 1-9.138-8.176 19.473 19.473 0 0 1-2.064-5.4 11.177 11.177 0 0 1-.255-1.378c-.058-.459-.153-.912-.175-1.364a21.551 21.551 0 0 1 .81-7.7 19.612 19.612 0 0 1 1.9-4.288 19.087 19.087 0 0 1 5.4-5.929 18.437 18.437 0 0 1 5.463-2.64l1.145-.292a10.148 10.148 0 0 1 1.021-.182 10.831 10.831 0 0 1 1.612-.175l1-.036a2.445 2.445 0 0 1 .353-.026Z"/><path d="M116.077 301.382h-1.349l-2.917-4.1v-2.69s-2.086-.131-1.838 3.391 0 2.626 0 2.626-4.427 0-4.792.4-.387 4.675-.438 7.06a2.582 2.582 0 0 0 1.831 2.6 1.808 1.808 0 0 0 .474.066c1.109 0 6.746-.9 6.746-.9h2.327Z"/><path d="m119.939 300.66-.831 9.219h-2.3v-9.029Z"/></g><path fill="#175cff" d="M147.422 488.34v-6.24l-11.181-.08-.095 9.43.693.051c3.085.2 15.695.489 17.766-.153 2.306-.715-7.183-3.008-7.183-3.008Z"/><path fill="#263238" d="M154.869 490.765c0 .1-4.186.19-9.343.19s-9.343-.088-9.343-.19 4.186-.19 9.343-.19 9.343.09 9.343.19Z"/><path fill="#263238" d="M147.619 489.613c-.095-.051 0-.379.226-.729s.532-.5.605-.423-.08.35-.3.649-.437.554-.531.503Z"/><path fill="#263238" d="M148.334 490.021c-.1 0-.051-.408.168-.795s.51-.62.591-.562-.051.387-.255.729-.409.665-.504.628Z"/><path fill="#263238" d="M139.553 490.736c-.044 0-.212-.131-.452-.408a7.228 7.228 0 0 0-.977-.977 2.574 2.574 0 0 0-1.211-.532c-.343-.044-.562 0-.583-.044s.19-.2.591-.226a2.254 2.254 0 0 1 1.459.5 4.114 4.114 0 0 1 .963 1.13c.166.316.254.528.21.557Z"/><path fill="#263238" d="M147.656 488.438c.051.087-.139.306-.46.423s-.605.073-.62 0 .212-.226.489-.328.533-.182.591-.095Z"/><path fill="#263238" d="M147.481 487.833c0 .109-.292.2-.671.2s-.678-.08-.671-.182.306-.2.671-.2.656.08.671.182Z"/><path fill="#175cff" d="M174.954 488.34v-6.24l-11.18-.08-.095 9.335.693.051c3.085.2 15.7.584 17.766-.058 2.301-.715-7.184-3.008-7.184-3.008Z"/><path fill="#263238" d="M182.401 490.78c0 .1-4.179.19-9.343.19s-9.335-.087-9.335-.19 4.179-.19 9.335-.19 9.343.087 9.343.19Z"/><path fill="#263238" d="M175.152 489.613c-.088-.051 0-.379.226-.729s.532-.5.605-.423-.08.35-.3.649-.437.554-.531.503Z"/><path fill="#263238" d="M175.867 490.021c-.095 0-.051-.408.175-.795s.511-.62.591-.562-.058.387-.263.729-.401.665-.503.628Z"/><path fill="#263238" d="M167.085 490.736c-.044 0-.2-.131-.452-.408a7.228 7.228 0 0 0-.977-.977 2.574 2.574 0 0 0-1.211-.532c-.335-.044-.562 0-.583-.044s.19-.2.591-.226a2.254 2.254 0 0 1 1.459.5 3.989 3.989 0 0 1 .963 1.13c.166.316.254.528.21.557Z"/><path fill="#263238" d="M175.188 488.438c.051.087-.139.306-.459.423s-.605.073-.62 0 .211-.226.489-.328.532-.182.59-.095Z"/><path fill="#263238" d="M175.023 487.833c0 .109-.292.2-.671.2s-.671-.08-.664-.182.3-.2.664-.2.671.08.671.182Z"/><path fill="#ffbe9d" d="M216.147 303.161c-.292-.3-1.014-.153-1.014-.153a3.734 3.734 0 0 0 0-1.269c-.131-.408-1.05-.328-1.05-.328a4.235 4.235 0 0 1 0-1.036.372.372 0 0 0-.212-.372 3.369 3.369 0 0 0-1.371-.248c-.562-.4 1.714-3.588 2.56-4.609s.693-1.816-.058-1.816c-.518 0-3.173 3.063-3.989 4.091s-2.983 3.887-3.056 1.6-.992-4-1.568-4.3-1.189.394-.875 1.028a8.16 8.16 0 0 1 .511 2.246 5.369 5.369 0 0 1-.08 1.838 22.042 22.042 0 0 1-.985 3.3h-.058s-15.914 15.265-17.066 16.351c-1.028.977-21.712-1.16-25.862-1.6a27.78 27.78 0 0 0-4.259-.292c-1.8.08-2.122.336-3.916.357a88.7 88.7 0 0 0-13.522 1.189 11.21 11.21 0 0 0-8.8 7.629c-4.179 13.055-13.646 43.956-15.316 61.314a73.663 73.663 0 0 0-3.413 7.053c-1.174 3.194-.89 3.3-.5 3.377 1.065.2 2.275-5.536 2.728-4.15s-2.3 6.834-1.181 6.994c1.459.2 2.618-5.835 2.757-6.316s.861-.328.729.124c-.212.642-2.261 7.446-.831 7.665.788.117.875-1.32.875-1.32s1.459-6.513 2.122-6.382-.044 3.975-.379 5.258.131 1.933.817 1.619c.467-.219 1.583-4.121 1.889-5.39s1.072-4.784 2.1-2.749 2.589 3.216 3.231 3.245a.729.729 0 0 0 .357-1.305 8.266 8.266 0 0 1-1.408-1.823 5.375 5.375 0 0 1-.729-1.707 18.5 18.5 0 0 1-.511-3.69l-.117-.729c1.634-8.088 6.338-31.827 13.128-46.99l2.786 5.732 1.211 4.245-7.424 18.328 31.667-.416-4.72-18.184 5.74-18.962c6.207.139 22.142.372 24.8-.831 3.34-1.459 20.618-23.28 20.618-23.28a39.912 39.912 0 0 0 3.231-2.8s1.047-.879.413-1.536Z"/><path fill="#175cff" d="M133.011 355.636c.919-3.136 5.638-18.641 5.638-18.641s2.319 12.639 1.707 14.163a26.978 26.978 0 0 1-1.991 3.762c-5.353 8.146-4.653 12.223-4.653 12.223l32.345-.985c.073-4.522-2.6-15.039-3.158-16.716s1.291-7.169 1.291-7.169 3.647-3.712 3.515-5.623a30.908 30.908 0 0 0-.635-5.105l19.692.729-.62-13.347-28.283-2.83c-.985 2.779-9.89 1.415-9.89 1.415-9.612.321-10.21 2.086-14.207 5.193s-10.612 29.771-10.612 29.771Z"/><path fill="#263238" d="M152.134 352.479a6.807 6.807 0 0 1-1.7.087c-1.058 0-2.509-.073-4.106-.233s-3.041-.387-4.07-.591a7.02 7.02 0 0 1-1.656-.423 9.118 9.118 0 0 1 1.7.16c1.036.131 2.472.314 4.062.474s3.034.27 4.077.343a9 9 0 0 1 1.693.183Z"/><path fill="#263238" d="M154.354 349.729a7.479 7.479 0 0 1-1.765.605 32.423 32.423 0 0 1-8.92 1.057 7.359 7.359 0 0 1-1.852-.175 12.469 12.469 0 0 1 1.852-.095c1.145-.036 2.72-.117 4.456-.321s3.282-.5 4.376-.729a12.1 12.1 0 0 1 1.853-.342Z"/><path fill="#263238" d="M165.232 337.462a7.591 7.591 0 0 1-.226 1.648c-.19 1.014-.481 2.4-.853 3.916s-.729 2.917-1.05 3.865a7.294 7.294 0 0 1-.569 1.568 7.422 7.422 0 0 1 .306-1.634c.277-1.138.591-2.45.941-3.887s.686-2.75.963-3.887a6.959 6.959 0 0 1 .489-1.59Z"/><path fill="#263238" d="M133.356 353.776a33.908 33.908 0 0 1-4.981-1.16 34.622 34.622 0 0 1-4.886-1.532 35.068 35.068 0 0 1 4.981 1.16 34.228 34.228 0 0 1 4.886 1.532Z"/><path fill="#263238" d="M167.421 331.387a2.452 2.452 0 0 1-.831 0 8.642 8.642 0 0 1-2.224-.532 9.138 9.138 0 0 1-5.28-5.185 9.423 9.423 0 0 1-.649-4.106 6.382 6.382 0 0 1 1-3.253 3.377 3.377 0 0 1 1.845-1.364 2.231 2.231 0 0 1 .62-.08h.219a2.365 2.365 0 0 0-.795.2 3.318 3.318 0 0 0-1.67 1.364 8.324 8.324 0 0 0-.211 7.074 8.913 8.913 0 0 0 2.254 3.3 9.576 9.576 0 0 0 2.764 1.78 14.049 14.049 0 0 0 2.958.802Z"/><path fill="#263238" d="M184.421 332.013a60.76 60.76 0 0 1-.175-6.724 60.156 60.156 0 0 1 .2-6.717 60.576 60.576 0 0 1 .175 6.717 58.341 58.341 0 0 1-.2 6.724Z"/><path fill="#ffbe9d" d="M157.669 316.917c.08-1.626.248-3.464.248-3.464a4.872 4.872 0 0 0 4.267-4.6c.241-4.157 0-13.748 0-13.748l-7.293-3.734-8.1 6.367 1.247 20.786 7.424.474a2.144 2.144 0 0 0 2.2-2.079Z"/><path fill="#eb996e" d="M158.391 305.561a.338.338 0 0 1-.066.175.54.54 0 0 1-.46.2c-.467 0-.919-.54-1.079-1.167a1.9 1.9 0 0 1 0-.926.8.8 0 0 1 .438-.627.4.4 0 0 1 .306 0 .372.372 0 0 1 .168.168.205.205 0 0 1 0 .2.213.213 0 0 0-.073-.146.263.263 0 0 0-.343-.073.62.62 0 0 0-.3.518 1.867 1.867 0 0 0 0 .824c.146.569.54 1.028.89 1.072a.5.5 0 0 0 .387-.109c.089-.059.118-.116.132-.109Z"/><path fill="#263238" d="M164.683 292.856c-.562-1.911-2.6-2.859-4.449-3.384a14.016 14.016 0 0 0-8.628-.139c-2.757 1.014-6.068 2.793-6.068 5.835-1.626-.131-2.56 1.291-3.2 3.056a11.451 11.451 0 0 0-.729 3.355c-.2 3.982-1.32 9.481-3.9 12.4-1.459 1.626-3.479 2.75-4.31 4.777-.729 1.758-.35 3.844-1.028 5.623-.605 1.568-1.94 2.684-2.917 4.048a10.852 10.852 0 0 0-.693 10.495 13.288 13.288 0 0 0 7.942 6.856 18.575 18.575 0 0 0 10.466.1 17.5 17.5 0 0 0 7.016-3.479 11.713 11.713 0 0 0 4.07-6.739c.518-2.976-.314-6-.934-8.963-1.94-9.357-1.386-9.846 1.065-18.532.058-.153.088-.314.131-.467s.066-.226.095-.343a5.5 5.5 0 0 0 .109-1.043 2.006 2.006 0 0 1-2.108-.452 2.188 2.188 0 0 1-.5-2.188 3.18 3.18 0 0 1 1.882-1.772c.81-.336 1.677-.511 2.472-.882a8.26 8.26 0 0 0 3.647-4.208 5.776 5.776 0 0 0 .569-3.953Z"/><path fill="#175cff" d="M158.683 305.758a3.565 3.565 0 0 1 .379.729c.219.459.511 1.109.831 1.86l.058.139h-.153l-.729.066c-.5 0-.926.095-1.422.088a.263.263 0 0 1-.19-.168.328.328 0 0 1 0-.2 2.9 2.9 0 0 1 .066-.292l.131-.518a4.935 4.935 0 0 1 .306-1.006 4.922 4.922 0 0 1-.153 1.043l-.1.518c-.037.175-.1.445 0 .423.365 0 .882-.08 1.364-.109l.729-.066-.095.16a23.133 23.133 0 0 1-.729-1.889 2.846 2.846 0 0 1-.293-.778Z"/><path fill="#a2beff" d="m133.712 367.14 32.345-.985 14.076 54.947-2.592 63.033h-17.1l2.093-61.686-12.508-38.253 1.925 102.382-17.285.255-1.815-96.233c-.08-2.677-.955-8.708-.627-11.363Z"/><path fill="#455a64" d="M154.329 384.977a6.475 6.475 0 0 1-1.583-.095c-.977-.117-2.312-.321-3.778-.613s-2.779-.627-3.727-.9a6.018 6.018 0 0 1-1.459-.525c0-.109 2.378.46 5.295 1.05s5.267.973 5.252 1.083Z"/><path fill="#455a64" d="M177.369 480.679c0 .1-3.873.19-8.65.19s-8.657-.087-8.657-.19 3.873-.19 8.657-.19 8.65.08 8.65.19Z"/><path fill="#455a64" d="M151.798 483.917c0 .109-3.763.19-8.4.19s-8.394-.08-8.394-.19 3.763-.19 8.394-.19 8.4.088 8.4.19Z"/><path fill="#455a64" d="M149.567 483.654c-.1 0-.554-22.368-1.014-49.958s-.729-49.973-.635-49.973.562 22.361 1.014 49.966.745 49.965.635 49.965Z"/><path fill="#455a64" d="M175.071 480.675a1.863 1.863 0 0 1 0-.3v-.875c0-.788.058-1.918.1-3.355.1-2.917.248-7.155.43-12.347.394-10.444.948-24.841 1.553-40.733v-.379c-3.829-15.316-7.293-29.217-9.809-39.274l-2.917-11.9c-.335-1.393-.591-2.48-.773-3.238-.088-.357-.146-.634-.2-.846a1.263 1.263 0 0 1-.051-.292 1.608 1.608 0 0 1 .087.284c.058.2.131.481.233.831.2.729.481 1.838.846 3.224.729 2.815 1.758 6.87 3.041 11.866 2.538 10.05 6.039 23.914 9.919 39.252v.482c-.649 15.892-1.24 30.281-1.67 40.725-.226 5.2-.416 9.408-.547 12.34-.073 1.459-.131 2.567-.168 3.355 0 .372-.044.664-.051.875a1.393 1.393 0 0 1-.029.3Z"/><path fill="#455a64" d="M169.492 421.355a19.547 19.547 0 0 1-3.778.839c-1.575.27-2.917.459-3.523.489v-.146c.2.058.3.095.3.124s-.124 0-.328 0h-.438l.438-.131c.569-.168 1.911-.445 3.486-.729a19.689 19.689 0 0 1 3.844-.445Z"/><path fill="#455a64" d="M169.193 423.449a18.823 18.823 0 0 1-3.406-.153 19.236 19.236 0 0 1-3.391-.372 21.593 21.593 0 0 1 6.797.525Z"/><path d="M133.573 368.304a4.435 4.435 0 0 0 3.194 1.7 14.39 14.39 0 0 0 3.916-.073c8.351-.926 17.2-1.78 25.373-3.771-10.582.591-21.763.394-32.345.985l-.109.9" opacity=".2"/><g opacity=".2"><path d="m144.476 383.219 5.966 23.149-.416-22.171Z"/></g></g><g><path fill="#f5f5f5" d="m162.095 140.479 1.012 2.059a.807.807 0 0 0 .626.446l2.276.337a.819.819 0 0 1 .446 1.4l-1.638 1.614a.807.807 0 0 0-.241.723l.385 2.264a.819.819 0 0 1-1.2.867l-2.035-1.072a.843.843 0 0 0-.759 0l-2.047 1.072a.819.819 0 0 1-1.2-.867l.4-2.264a.843.843 0 0 0-.241-.723l-1.65-1.614a.819.819 0 0 1 .458-1.4l2.276-.337a.831.831 0 0 0 .626-.446l1.012-2.059a.831.831 0 0 1 1.505 0Z"/><path fill="#f0f0f0" d="m8.099 364.501 1.024 2.071a.819.819 0 0 0 .614.446l2.276.337a.819.819 0 0 1 .458 1.4l-1.65 1.6a.831.831 0 0 0-.229.735l.385 2.264a.819.819 0 0 1-1.2.867l-2.035-1.072a.867.867 0 0 0-.771 0l-2.035 1.072a.819.819 0 0 1-1.2-.867l.385-2.264a.831.831 0 0 0-.229-.735l-1.638-1.6a.819.819 0 0 1 .458-1.4l2.276-.337a.819.819 0 0 0 .614-.446l1.024-2.071a.819.819 0 0 1 1.481 0Z"/><path fill="#f0f0f0" d="m30.832 198.194 1.012 2.059a.831.831 0 0 0 .614.458l2.276.325a.831.831 0 0 1 .458 1.409l-1.65 1.6a.855.855 0 0 0-.241.723l.4 2.276a.819.819 0 0 1-1.2.867l-2.035-1.072a.8.8 0 0 0-.771 0l-2.035 1.072a.819.819 0 0 1-1.2-.867l.385-2.276a.783.783 0 0 0-.241-.723l-1.638-1.6a.819.819 0 0 1 .446-1.409l2.276-.325a.855.855 0 0 0 .626-.458l1.012-2.059a.831.831 0 0 1 1.517 0Z"/><path fill="#f0f0f0" d="m84.496 248.051.6 1.2a.506.506 0 0 0 .373.265l1.361.193a.494.494 0 0 1 .265.843l-.975.963a.482.482 0 0 0-.145.434l.229 1.349a.482.482 0 0 1-.71.518l-1.2-.638a.506.506 0 0 0-.458 0l-1.2.638a.482.482 0 0 1-.71-.518l.229-1.349a.482.482 0 0 0-.145-.434l-.987-.963a.494.494 0 0 1 .277-.843l1.361-.193a.506.506 0 0 0 .373-.265l.6-1.2a.506.506 0 0 1 .867 0Z"/><path fill="#f5f5f5" d="m46.138 425.011.6 1.2a.518.518 0 0 0 .373.277l1.361.193a.494.494 0 0 1 .277.843l-.987.951a.506.506 0 0 0-.145.446l.241 1.349a.494.494 0 0 1-.723.518l-1.2-.638a.506.506 0 0 0-.458 0l-1.2.638a.494.494 0 0 1-.71-.518l.229-1.349a.506.506 0 0 0-.132-.446l-.987-.951a.494.494 0 0 1 .265-.843l1.361-.193a.494.494 0 0 0 .373-.277l.614-1.2a.494.494 0 0 1 .855 0Z"/><path fill="#f5f5f5" d="m425.627 142.357.6 1.2a.469.469 0 0 0 .373.265l1.361.2a.494.494 0 0 1 .277.843l-.987.951a.494.494 0 0 0-.145.434l.241 1.361a.494.494 0 0 1-.723.518l-1.2-.638a.506.506 0 0 0-.458 0l-1.2.638a.494.494 0 0 1-.711-.518l.229-1.361a.494.494 0 0 0-.132-.434l-1.012-.939a.494.494 0 0 1 .265-.843l1.361-.2a.458.458 0 0 0 .373-.265l.614-1.2a.482.482 0 0 1 .879-.012Z"/><path fill="#f0f0f0" d="m415.163 369.627 1.048 2.131a.819.819 0 0 0 .638.458l2.408.349a.843.843 0 0 1 .47 1.445l-1.806 1.662a.879.879 0 0 0-.241.759l.409 2.408a.855.855 0 0 1-1.2.891l-2.107-1.108a.843.843 0 0 0-.795 0l-2.083 1.084a.843.843 0 0 1-1.2-.891l.4-2.408a.843.843 0 0 0-.241-.759l-1.71-1.662a.855.855 0 0 1 .482-1.445l2.348-.349a.819.819 0 0 0 .638-.458l1.06-2.131a.855.855 0 0 1 1.493.024Z"/><path fill="#f0f0f0" d="M286.168 170.042a1.6 1.6 0 1 1-1.6-1.6 1.6 1.6 0 0 1 1.6 1.6Z"/><path fill="#f0f0f0" d="M62.604 150.076a6.852 6.852 0 1 1-6.852-6.852 6.852 6.852 0 0 1 6.852 6.852Z"/><path fill="#f0f0f0" d="M381.023 181.434a21.676 21.676 0 0 1 8.767 16.269 54.925 54.925 0 0 0-11.946-12.042 55.922 55.922 0 0 0-14.98-7.924 21.676 21.676 0 0 1 18.159 3.697Z"/><path fill="#f0f0f0" d="M356.903 326.227a21.676 21.676 0 0 1-18.3 2.625 54.657 54.657 0 0 0 15.366-7.081 55.838 55.838 0 0 0 12.6-11.331 21.676 21.676 0 0 1-9.67 15.787Z"/><path fill="#f0f0f0" d="M389.814 235.31a21.592 21.592 0 0 1 0 18.485 54.269 54.269 0 0 0-4.817-16.221 55.84 55.84 0 0 0-9.417-14.077 21.676 21.676 0 0 1 14.234 11.813Z"/><path fill="#f0f0f0" d="M405.336 300.879a21.676 21.676 0 0 1-16.63 8.092 54.334 54.334 0 0 0 12.463-11.44 55.958 55.958 0 0 0 8.55-14.631 21.676 21.676 0 0 1-4.383 17.979Z"/></g></g></g></svg>